<mxfile host="app.diagrams.net" agent="Mozilla/5.0 (Windows NT 10.0; Win64; x64) AppleWebKit/537.36 (KHTML, like Gecko) Chrome/130.0.0.0 Safari/537.36 Edg/130.0.0.0" version="24.8.2">
  <diagram name="Página-1" id="A1XricTwvR2LtzFUGfRS">
    <mxGraphModel dx="1869" dy="539" grid="1" gridSize="10" guides="1" tooltips="1" connect="1" arrows="1" fold="1" page="1" pageScale="1" pageWidth="827" pageHeight="1169" math="0" shadow="0">
      <root>
        <mxCell id="0" />
        <mxCell id="1" parent="0" />
        <mxCell id="thF2VDcHaVG7FaZjGytK-1" value="Administrador" style="shape=umlActor;verticalLabelPosition=bottom;verticalAlign=top;html=1;outlineConnect=0;" parent="1" vertex="1">
          <mxGeometry x="-100" y="30" width="50" height="100" as="geometry" />
        </mxCell>
        <mxCell id="thF2VDcHaVG7FaZjGytK-5" value="Tela principal" style="shape=umlBoundary;whiteSpace=wrap;html=1;" parent="1" vertex="1">
          <mxGeometry x="30" y="40" width="100" height="80" as="geometry" />
        </mxCell>
        <mxCell id="thF2VDcHaVG7FaZjGytK-9" style="edgeStyle=orthogonalEdgeStyle;rounded=0;orthogonalLoop=1;jettySize=auto;html=1;entryX=0.05;entryY=0.496;entryDx=0;entryDy=0;entryPerimeter=0;" parent="1" source="thF2VDcHaVG7FaZjGytK-5" edge="1">
          <mxGeometry relative="1" as="geometry">
            <mxPoint x="203.9375" y="79.63999999999999" as="targetPoint" />
          </mxGeometry>
        </mxCell>
        <mxCell id="thF2VDcHaVG7FaZjGytK-35" style="edgeStyle=orthogonalEdgeStyle;rounded=0;orthogonalLoop=1;jettySize=auto;html=1;entryX=0.018;entryY=0.495;entryDx=0;entryDy=0;entryPerimeter=0;" parent="1" source="thF2VDcHaVG7FaZjGytK-1" target="thF2VDcHaVG7FaZjGytK-5" edge="1">
          <mxGeometry relative="1" as="geometry" />
        </mxCell>
        <mxCell id="thF2VDcHaVG7FaZjGytK-37" value="Acessar tela de cadastro" style="ellipse;shape=umlControl;whiteSpace=wrap;html=1;" parent="1" vertex="1">
          <mxGeometry x="200" y="30" width="78.75" height="90" as="geometry" />
        </mxCell>
        <mxCell id="thF2VDcHaVG7FaZjGytK-42" style="edgeStyle=orthogonalEdgeStyle;rounded=0;orthogonalLoop=1;jettySize=auto;html=1;" parent="1" source="thF2VDcHaVG7FaZjGytK-38" target="thF2VDcHaVG7FaZjGytK-41" edge="1">
          <mxGeometry relative="1" as="geometry" />
        </mxCell>
        <mxCell id="yQ8m5PVfVtzuY-FzAJRZ-1" style="edgeStyle=orthogonalEdgeStyle;rounded=0;orthogonalLoop=1;jettySize=auto;html=1;" edge="1" parent="1" source="thF2VDcHaVG7FaZjGytK-38" target="thF2VDcHaVG7FaZjGytK-1">
          <mxGeometry relative="1" as="geometry" />
        </mxCell>
        <mxCell id="thF2VDcHaVG7FaZjGytK-38" value="Tela de cadastro" style="shape=umlBoundary;whiteSpace=wrap;html=1;" parent="1" vertex="1">
          <mxGeometry x="80" y="140" width="100" height="80" as="geometry" />
        </mxCell>
        <mxCell id="thF2VDcHaVG7FaZjGytK-39" value="" style="endArrow=classic;html=1;rounded=0;entryX=0.997;entryY=0.356;entryDx=0;entryDy=0;entryPerimeter=0;" parent="1" source="thF2VDcHaVG7FaZjGytK-37" target="thF2VDcHaVG7FaZjGytK-38" edge="1">
          <mxGeometry width="50" height="50" relative="1" as="geometry">
            <mxPoint x="280" y="250" as="sourcePoint" />
            <mxPoint x="330" y="200" as="targetPoint" />
          </mxGeometry>
        </mxCell>
        <mxCell id="thF2VDcHaVG7FaZjGytK-40" value="Validar&lt;div&gt;dados cadastro&lt;/div&gt;" style="ellipse;shape=umlControl;whiteSpace=wrap;html=1;" parent="1" vertex="1">
          <mxGeometry x="420" y="110" width="70" height="80" as="geometry" />
        </mxCell>
        <mxCell id="thF2VDcHaVG7FaZjGytK-41" value="Cadastrar novo usuário&amp;nbsp;" style="ellipse;shape=umlControl;whiteSpace=wrap;html=1;" parent="1" vertex="1">
          <mxGeometry x="300" y="110" width="70" height="80" as="geometry" />
        </mxCell>
        <mxCell id="thF2VDcHaVG7FaZjGytK-43" style="edgeStyle=orthogonalEdgeStyle;rounded=0;orthogonalLoop=1;jettySize=auto;html=1;entryX=-0.005;entryY=0.49;entryDx=0;entryDy=0;entryPerimeter=0;" parent="1" source="thF2VDcHaVG7FaZjGytK-41" target="thF2VDcHaVG7FaZjGytK-40" edge="1">
          <mxGeometry relative="1" as="geometry" />
        </mxCell>
        <mxCell id="thF2VDcHaVG7FaZjGytK-44" value="Criar novo usuário" style="ellipse;shape=umlControl;whiteSpace=wrap;html=1;" parent="1" vertex="1">
          <mxGeometry x="520" y="170" width="70" height="80" as="geometry" />
        </mxCell>
        <mxCell id="thF2VDcHaVG7FaZjGytK-45" value="" style="endArrow=classic;html=1;rounded=0;exitX=0.976;exitY=0.723;exitDx=0;exitDy=0;exitPerimeter=0;entryX=0.005;entryY=0.381;entryDx=0;entryDy=0;entryPerimeter=0;" parent="1" source="thF2VDcHaVG7FaZjGytK-40" target="thF2VDcHaVG7FaZjGytK-44" edge="1">
          <mxGeometry width="50" height="50" relative="1" as="geometry">
            <mxPoint x="430" y="260" as="sourcePoint" />
            <mxPoint x="480" y="210" as="targetPoint" />
          </mxGeometry>
        </mxCell>
        <mxCell id="thF2VDcHaVG7FaZjGytK-46" value="mensagem erro no cadastro" style="ellipse;shape=umlControl;whiteSpace=wrap;html=1;" parent="1" vertex="1">
          <mxGeometry x="190" y="280" width="70" height="80" as="geometry" />
        </mxCell>
        <mxCell id="thF2VDcHaVG7FaZjGytK-47" value="" style="endArrow=classic;html=1;rounded=0;entryX=0.91;entryY=0.756;entryDx=0;entryDy=0;entryPerimeter=0;exitX=-0.005;exitY=0.456;exitDx=0;exitDy=0;exitPerimeter=0;" parent="1" source="thF2VDcHaVG7FaZjGytK-46" target="thF2VDcHaVG7FaZjGytK-38" edge="1">
          <mxGeometry width="50" height="50" relative="1" as="geometry">
            <mxPoint x="430" y="260" as="sourcePoint" />
            <mxPoint x="480" y="210" as="targetPoint" />
          </mxGeometry>
        </mxCell>
        <mxCell id="thF2VDcHaVG7FaZjGytK-48" style="edgeStyle=orthogonalEdgeStyle;rounded=0;orthogonalLoop=1;jettySize=auto;html=1;entryX=1;entryY=0.5;entryDx=0;entryDy=0;entryPerimeter=0;" parent="1" source="thF2VDcHaVG7FaZjGytK-40" target="thF2VDcHaVG7FaZjGytK-46" edge="1">
          <mxGeometry relative="1" as="geometry">
            <Array as="points">
              <mxPoint x="430" y="240" />
              <mxPoint x="260" y="240" />
            </Array>
          </mxGeometry>
        </mxCell>
        <mxCell id="thF2VDcHaVG7FaZjGytK-49" value="Caso haja erro nos dados/&lt;div&gt;usuário já cadastrado&lt;/div&gt;" style="edgeLabel;html=1;align=center;verticalAlign=middle;resizable=0;points=[];" parent="thF2VDcHaVG7FaZjGytK-48" vertex="1" connectable="0">
          <mxGeometry x="0.1976" y="1" relative="1" as="geometry">
            <mxPoint as="offset" />
          </mxGeometry>
        </mxCell>
        <mxCell id="thF2VDcHaVG7FaZjGytK-51" value="Mensagem usuário criado com sucesso&amp;nbsp;" style="ellipse;shape=umlControl;whiteSpace=wrap;html=1;" parent="1" vertex="1">
          <mxGeometry x="240" y="380" width="78.75" height="90" as="geometry" />
        </mxCell>
        <mxCell id="thF2VDcHaVG7FaZjGytK-57" style="edgeStyle=orthogonalEdgeStyle;rounded=0;orthogonalLoop=1;jettySize=auto;html=1;entryX=0.483;entryY=1.006;entryDx=0;entryDy=0;entryPerimeter=0;" parent="1" source="thF2VDcHaVG7FaZjGytK-51" target="thF2VDcHaVG7FaZjGytK-38" edge="1">
          <mxGeometry relative="1" as="geometry" />
        </mxCell>
        <mxCell id="thF2VDcHaVG7FaZjGytK-58" value="Usuários cadastrados" style="ellipse;shape=umlEntity;whiteSpace=wrap;html=1;" parent="1" vertex="1">
          <mxGeometry x="660" y="200" width="80" height="80" as="geometry" />
        </mxCell>
        <mxCell id="thF2VDcHaVG7FaZjGytK-59" style="edgeStyle=orthogonalEdgeStyle;rounded=0;orthogonalLoop=1;jettySize=auto;html=1;entryX=0.004;entryY=0.731;entryDx=0;entryDy=0;entryPerimeter=0;" parent="1" source="thF2VDcHaVG7FaZjGytK-44" target="thF2VDcHaVG7FaZjGytK-58" edge="1">
          <mxGeometry relative="1" as="geometry">
            <Array as="points">
              <mxPoint x="555" y="258" />
              <mxPoint x="625" y="258" />
            </Array>
          </mxGeometry>
        </mxCell>
        <mxCell id="thF2VDcHaVG7FaZjGytK-61" style="edgeStyle=orthogonalEdgeStyle;rounded=0;orthogonalLoop=1;jettySize=auto;html=1;exitX=0.326;exitY=0.981;exitDx=0;exitDy=0;exitPerimeter=0;" parent="1" source="thF2VDcHaVG7FaZjGytK-44" target="thF2VDcHaVG7FaZjGytK-51" edge="1">
          <mxGeometry relative="1" as="geometry">
            <mxPoint x="553.75" y="250" as="sourcePoint" />
            <mxPoint x="318.76" y="419.96000000000004" as="targetPoint" />
            <Array as="points">
              <mxPoint x="543" y="250" />
              <mxPoint x="540" y="250" />
              <mxPoint x="540" y="420" />
            </Array>
          </mxGeometry>
        </mxCell>
        <mxCell id="thF2VDcHaVG7FaZjGytK-62" value="Caso os dados tenham sido validados como corretos/&lt;div&gt;Ainda nao constem no sistema&lt;/div&gt;" style="edgeLabel;html=1;align=center;verticalAlign=middle;resizable=0;points=[];" parent="thF2VDcHaVG7FaZjGytK-61" vertex="1" connectable="0">
          <mxGeometry x="-0.431" y="1" relative="1" as="geometry">
            <mxPoint as="offset" />
          </mxGeometry>
        </mxCell>
      </root>
    </mxGraphModel>
  </diagram>
</mxfile>
